<svg width="96" height="96" viewBox="0 0 96 96" fill="none" xmlns="http://www.w3.org/2000/svg">
<path d="M79.224 8.79C81.504 9.792 84 11.688 84 15C84 18.228 81.66 20.142 79.44 21.186C77.19 22.236 74.22 22.842 71.046 23.226C64.686 24 56.286 24 48.156 24H48C39.684 24 31.638 24 25.674 24.726C22.662 25.092 20.472 25.614 19.104 26.25C18.7045 26.4099 18.3412 26.6487 18.036 26.952L18.018 26.976C18.09 27.132 18.468 27.756 20.268 28.488C22.416 29.37 25.74 30 30 30V36C25.254 36 21.084 35.316 17.982 34.038C15.156 32.88 12 30.66 12 27C12 23.772 14.34 21.858 16.56 20.814C18.81 19.764 21.78 19.158 24.954 18.774C31.314 18 39.714 18 47.844 18H48C56.316 18 64.362 18 70.326 17.274C73.338 16.908 75.528 16.386 76.896 15.75C77.2955 15.59 77.6587 15.3512 77.964 15.048L77.988 15.024L77.976 15.012C77.635 14.6899 77.2331 14.439 76.794 14.274C75.318 13.62 72.954 13.098 69.726 12.732C63.33 12 54.642 12 45.462 12C44.6664 12 43.9033 11.6839 43.3407 11.1213C42.7781 10.5587 42.462 9.79565 42.462 9C42.462 8.20435 42.7781 7.44129 43.3407 6.87868C43.9033 6.31607 44.6664 6 45.462 6H45.612C54.612 6 63.63 6 70.404 6.768C73.782 7.152 76.884 7.752 79.224 8.79ZM35.994 39C35.994 37.8181 36.2268 36.6478 36.6791 35.5558C37.1314 34.4639 37.7943 33.4718 38.63 32.636C39.4658 31.8003 40.4579 31.1374 41.5498 30.6851C42.6418 30.2328 43.8121 30 44.994 30C46.1759 30 47.3462 30.2328 48.4381 30.6851C49.5301 31.1374 50.5222 31.8003 51.358 32.636C52.1937 33.4718 52.8566 34.4639 53.3089 35.5558C53.7612 36.6478 53.994 37.8181 53.994 39V48.42L62.244 49.68C64.3079 49.9938 66.2836 50.735 68.0446 51.8562C69.8056 52.9773 71.3132 54.4537 72.471 56.1909C73.6287 57.9281 74.4111 59.8878 74.7681 61.9447C75.125 64.0016 75.0487 66.1103 74.544 68.136L71.226 81.444C70.7962 83.1673 69.8662 84.725 68.5529 85.9208C67.2397 87.1166 65.6019 87.8971 63.846 88.164L52.446 89.904C48.798 90.45 45.408 88.722 43.314 86.196C41.532 84.048 38.772 81.288 35.22 79.38C35.1314 79.3324 35.0453 79.2803 34.962 79.224L20.202 69.246C19.3697 68.6819 18.7276 67.879 18.3603 66.943C17.9929 66.007 17.9175 64.9817 18.144 64.002C18.5212 62.3658 19.2712 60.8389 20.3356 59.5403C21.4 58.2417 22.75 57.2065 24.2802 56.5154C25.8105 55.8243 27.4797 55.496 29.1577 55.5562C30.8357 55.6163 32.4771 56.0632 33.954 56.862L35.994 57.972V39Z" fill="black"/>
</svg>
