<svg width="145" height="134" viewBox="0 0 145 134" fill="none" xmlns="http://www.w3.org/2000/svg">
<g clip-path="url(#clip0_73_19)">
<path d="M25.4166 19.4165H119.583V66.4998H110.167V28.8332H34.8333V73.9673L58.375 50.4256L81.5117 73.5623L74.8541 80.2199L58.375 63.7408L34.8333 87.2824V104.167H96.0416V113.583H25.4166V19.4165ZM89.2004 42.9582C87.9517 42.9582 86.7541 43.4542 85.8711 44.3372C84.9881 45.2202 84.4921 46.4178 84.4921 47.6665C84.4921 48.9152 84.9881 50.1128 85.8711 50.9958C86.7541 51.8788 87.9517 52.3748 89.2004 52.3748C90.4491 52.3748 91.6467 51.8788 92.5297 50.9958C93.4127 50.1128 93.9088 48.9152 93.9088 47.6665C93.9088 46.4178 93.4127 45.2202 92.5297 44.3372C91.6467 43.4542 90.4491 42.9582 89.2004 42.9582ZM75.0754 47.6665C75.0754 43.9203 76.5636 40.3276 79.2125 37.6786C81.8615 35.0297 85.4542 33.5415 89.2004 33.5415C92.9466 33.5415 96.5393 35.0297 99.1883 37.6786C101.837 40.3276 103.325 43.9203 103.325 47.6665C103.325 51.4127 101.837 55.0054 99.1883 57.6544C96.5393 60.3033 92.9466 61.7915 89.2004 61.7915C85.4542 61.7915 81.8615 60.3033 79.2125 57.6544C76.5636 55.0054 75.0754 51.4127 75.0754 47.6665ZM91.3333 75.9165H129V85.3332H114.875V118.292H105.458V85.3332H91.3333V75.9165Z" fill="black"/>
</g>
<defs>
<clipPath id="clip0_73_19">
<rect width="113" height="113" fill="white" transform="translate(16 10)"/>
</clipPath>
</defs>
</svg>
