<svg width="41" height="41" viewBox="0 0 41 41" fill="none" xmlns="http://www.w3.org/2000/svg">
<g clip-path="url(#clip0_365_4633)">
<path d="M10.2743 6.82959C6.50055 6.82959 3.44092 9.88921 3.44092 13.6629V27.3296C3.44092 31.1033 6.50055 34.1629 10.2743 34.1629H30.7743C34.548 34.1629 37.6076 31.1033 37.6076 27.3296V13.6629C37.6076 9.88921 34.548 6.82959 30.7743 6.82959H10.2743ZM10.2743 10.2463H30.7743C32.4963 10.2463 33.9193 11.5104 34.1551 13.1675C32.5185 14.6931 30.0858 16.5654 28.4783 17.7202C24.7798 20.3767 21.5254 22.2046 20.5243 22.2046C19.5232 22.2046 16.2688 20.3784 12.5703 17.7202C10.9627 16.5654 9.38252 15.3166 8.19181 14.3035C7.68443 13.8713 7.30858 13.5228 7.01816 13.2358C7.25391 11.5788 8.55226 10.2463 10.2743 10.2463ZM6.87469 17.6843C11.2104 21.1915 17.5637 25.6007 20.5243 25.6212C22.453 25.6349 25.7518 23.7933 29.1172 21.4683C30.858 20.2639 32.7953 18.834 34.1927 17.6604L34.191 27.3296C34.191 29.2173 32.662 30.7462 30.7743 30.7462H10.2743C8.38655 30.7462 6.85759 29.2173 6.85759 27.3296L6.87469 17.6843Z" fill="black"/>
</g>
<defs>
<clipPath id="clip0_365_4633">
<rect width="41" height="41" fill="white"/>
</clipPath>
</defs>
</svg>
