<?xml version="1.0" encoding="utf-8"?>
<!-- Uploaded to: SVG Repo, www.svgrepo.com, Generator: SVG Repo Mixer Tools -->
<svg version="1.1" id="Uploaded to svgrepo.com" xmlns="http://www.w3.org/2000/svg" xmlns:xlink="http://www.w3.org/1999/xlink" 
	 width="800px" height="800px" viewBox="0 0 32 32" xml:space="preserve">
<style type="text/css">
	.duotone_twee{fill:#555D5E;}
	.duotone_een{fill:#0B1719;}
	.st0{fill:none;}
</style>
<g>
	<path class="duotone_een" d="M18.5,28h-5c-0.276,0-0.5-0.224-0.5-0.5v-1c0-0.276,0.224-0.5,0.5-0.5h5c0.276,0,0.5,0.224,0.5,0.5v1
		C19,27.776,18.776,28,18.5,28z M20,24.5v-1c0-0.276-0.224-0.5-0.5-0.5h-7c-0.276,0-0.5,0.224-0.5,0.5v1c0,0.276,0.224,0.5,0.5,0.5
		h7C19.776,25,20,24.776,20,24.5z"/>
	<path class="duotone_twee" d="M12.005,18.932C9.611,17.55,8,14.963,8,12c0-4.418,3.582-8,8-8s8,3.582,8,8
		c0,2.963-1.606,5.55-4,6.932V21.5c0,0.276-0.224,0.5-0.5,0.5H18v-5.134c0.163-0.392,1.415-2.609,1.415-2.609
		c0.271-0.457,0.275-1.033,0.01-1.499C19.158,12.29,18.658,12,18.12,12h-4.24c-0.538,0-1.038,0.29-1.305,0.758
		c-0.266,0.466-0.261,1.043,0.013,1.505L14,16.866V22h-1.5c-0.276,0-0.5-0.224-0.5-0.5L12.005,18.932z M17,22v-5.271
		c0-0.323,1.552-2.977,1.552-2.977C18.749,13.419,18.507,13,18.12,13h-4.24c-0.387,0-0.629,0.419-0.431,0.753
		c0,0,1.552,2.652,1.552,2.977V22H17z"/>
</g>
</svg>