<svg width="800" height="800" viewBox="0 0 800 800" fill="none" xmlns="http://www.w3.org/2000/svg">
<path d="M462.5 700H337.5C330.6 700 325 694.4 325 687.5V662.5C325 655.6 330.6 650 337.5 650H462.5C469.4 650 475 655.6 475 662.5V687.5C475 694.4 469.4 700 462.5 700ZM500 612.5V587.5C500 580.6 494.4 575 487.5 575H312.5C305.6 575 300 580.6 300 587.5V612.5C300 619.4 305.6 625 312.5 625H487.5C494.4 625 500 619.4 500 612.5Z" fill="black"/>
<path d="M300.125 473.3C240.275 438.75 200 374.075 200 300C200 189.55 289.55 100 400 100C510.45 100 600 189.55 600 300C600 374.075 559.85 438.75 500 473.3V537.5C500 544.4 494.4 550 487.5 550H450V421.65C454.075 411.85 485.375 356.425 485.375 356.425C492.15 345 492.25 330.6 485.625 318.95C478.95 307.25 466.45 300 453 300H347C333.55 300 321.05 307.25 314.375 318.95C307.725 330.6 307.85 345.025 314.7 356.575L350 421.65V550H312.5C305.6 550 300 544.4 300 537.5L300.125 473.3ZM425 550V418.225C425 410.15 463.8 343.8 463.8 343.8C468.725 335.475 462.675 325 453 325H347C337.325 325 331.275 335.475 336.225 343.825C336.225 343.825 375.025 410.125 375.025 418.25V550H425Z" fill="black"/>
</svg>
