<?xml version="1.0" encoding="utf-8" ?>
<svg xmlns="http://www.w3.org/2000/svg" xmlns:xlink="http://www.w3.org/1999/xlink" width="1024" height="1024">
	<path fill="#FEFEFE" d="M-0 -0L1024 0L1024 1024L-0 1024L0 -0Z"/>
	<path fill="#C30806" d="M608.49 253.463L652.757 325.113L654.962 284.881L715.172 284.966L733.849 284.941C737.344 284.94 740.996 284.626 744.408 285.398L745.025 285.505L653.666 334.017L605.732 255.105L608.49 253.463Z"/>
	<path fill="#C30806" d="M411.863 253.162C412.664 253.705 413.425 254.205 414.16 254.835L365.083 334.18L272.548 286.166C274.684 284.92 278.144 285.434 280.545 285.437L298.997 285.494L366.093 285.966L368.097 321.846L411.863 253.162Z"/>
	<path fill="#FEFEFE" d="M366.093 285.966L359.154 185.397L411.863 253.162L368.097 321.846L366.093 285.966Z"/>
	<path fill="#FEFEFE" d="M660.816 185.311C661.531 194.641 660.31 204.385 659.755 213.722L654.962 284.881L652.757 325.113L608.49 253.463L660.816 185.311Z"/>
	<path fill="#F01518" d="M357.602 183.208L359.154 185.397L366.093 285.966L298.997 285.494L280.545 285.437C278.144 285.434 274.684 284.92 272.548 286.166L269.656 284.737L357.602 183.208Z"/>
	<path fill="#F01518" d="M662.79 182.888L750.017 283.082L745.025 285.505L744.408 285.398C740.996 284.626 737.344 284.94 733.849 284.941L715.172 284.966L654.962 284.881L659.755 213.722C660.31 204.385 661.531 194.641 660.816 185.311L662.79 182.888Z"/>
	<path d="M357.602 183.208C366.389 177.639 376.635 173.358 385.931 168.622L441.81 140.007L483.424 118.305C491.103 114.27 498.762 109.586 506.848 106.471L414.16 254.835C413.425 254.205 412.664 253.705 411.863 253.162L359.154 185.397L357.602 183.208Z"/>
	<path d="M605.732 255.105L515.212 106.971L662.79 182.888L660.816 185.311L608.49 253.463L605.732 255.105Z"/>
	<path fill="#F01518" d="M513.171 113.75L513.396 113.831C514.838 115.721 515.831 118.191 516.893 120.32L523.405 133.736L552.742 195.758L591.999 280.5L613.983 328.419L513.534 328.185L513.23 114.687L513.171 113.75Z"/>
	<path fill="#F01518" d="M509.667 105.75L510.53 106.5C509.136 115.875 509.464 125.474 509.443 134.932L509.416 171.62L509.382 298.986L509.379 320.125C509.378 322.217 509.897 326.347 509.047 328.177L406.75 328.396L406.022 327.487L425.546 285.145L446.722 240.114L458.203 214.51L478.397 171.813L493.257 140.943L503.949 119.5C505.683 116.08 508.711 111.798 509.213 107.972C509.374 106.746 509.218 107.309 509.516 106.234L509.667 105.75Z"/>
	<path fill="#C30806" d="M504.542 681.534L269.44 289.94L303.583 308.032C310.923 311.794 363.279 337.019 365.08 339.459C366.04 340.759 366.802 343.009 367.497 344.5L372.844 356.173L395.457 405.348L464.475 559.215L475.128 583.303L489.75 613.679C494.716 624.45 499.015 635.991 504.679 646.369L505.128 647.179C505.822 650.968 507.383 654.421 508.674 658.02L513.758 672.943C514.665 675.449 515.87 677.833 516.683 680.365L516.49 680.843C514.146 680.647 506.401 680.403 504.542 681.534Z"/>
	<path d="M516.49 680.843C513.598 689.278 508.634 697.708 504.476 705.585L488.18 736.658L435.466 837.065L363.684 837.286L335.602 837.045C330.186 837.009 324.375 836.627 319.013 837.337C341.712 841.482 364.165 849.358 385.417 858.25L423.588 874.649C489.422 900.72 565.176 909.835 634.676 894.928C648.548 891.952 661.809 887.377 675.25 882.942L675.492 883.337C610.63 913.04 539.03 926.148 468 916.309C443.099 912.859 418.806 906.324 395.261 897.575C374.892 890.007 354.871 880.35 335.274 870.969C315.385 861.45 295.273 850.949 273.5 846.525C252.713 842.301 231.384 839.96 210.176 839.54L185.061 839.214C179.955 839.155 174.437 839.397 169.403 838.599C182.249 835.779 198.255 834.157 206.114 822.041C210.063 815.952 211.796 808.134 212.343 800.965C213.414 786.905 212.745 772.31 212.75 758.198L212.559 672.468L212.448 531.042L212.386 492.306C212.348 481.984 213.195 470.174 210.667 460.156C209.302 454.748 206.16 449.423 201.25 446.56C191.569 440.916 179.925 441.935 169.504 438.951C175.636 438.298 181.823 438.356 187.981 438.146L233.831 437.676L281.881 437.92C289.152 438.194 296.545 438.312 303.747 439.384C292.946 440.934 276.304 441.46 269.177 450.918C264.542 457.067 263.272 465.479 262.738 472.967C262.252 479.803 262.482 486.764 262.492 493.615L262.517 525.744L262.785 640.947L262.673 748.339L262.561 780.48C262.534 788.923 262.263 797.685 263.622 806.037C264.222 809.724 264.831 813.859 267.75 816.447C272.583 817.624 278.488 816.952 283.46 816.907L308.309 816.802L426.123 817.087L504.542 681.534C506.401 680.403 514.146 680.647 516.49 680.843Z"/>
	<path d="M670.402 440.207C679.443 440.308 688.619 440.121 697.634 440.786C726.861 442.944 758.611 450.804 781.031 470.688C797.792 485.552 806.377 502.26 807.666 524.624C809.692 559.772 798.962 596.369 775.258 622.84C761.236 638.499 742.199 650.379 721.785 655.534C713.093 657.728 704.389 658.55 695.47 659.047C697.37 662.271 699.937 665.331 702.125 668.385L718.101 689.565L743.558 722.416L786.69 779.195C797.514 793.44 807.646 808.683 821.197 820.535C832.213 830.17 843.198 834.546 857.13 838.358L791.416 838.761L778.812 838.859C778.221 838.864 776.125 839.101 775.636 838.89C774.653 838.466 768.344 829.196 767.036 827.501L676.642 708.316C664.339 692.166 652.648 675.029 639.494 659.594C635.593 655.017 630.744 651.139 626.214 647.193L626.23 698.25L626.249 751.373L626.386 782.664C626.462 792.506 626.537 802.217 627.714 812.005C628.311 816.963 629.259 822.842 631.718 827.25C633.127 829.774 635.197 831.172 637.687 832.519C647.275 837.707 657.902 835.836 667.947 838.669L544.833 838.938L557.643 836.635C565.338 834.885 571.862 832.159 575.461 824.617C577.64 820.05 578.368 814.539 578.742 809.532C579.472 799.766 579.333 789.89 579.378 780.099L579.423 736.994L579.415 626.004L579.438 600.767C579.439 599.124 578.952 595.037 579.443 593.754C580.066 592.127 581.823 590.085 582.773 588.567L592.21 573.5L626.455 518.628L626.213 641.324L657.766 643.526C675.453 643.935 694.963 644.476 711.734 638.015C720.363 634.69 728.202 629.267 734.823 622.857C753.078 605.183 760.529 579.998 760.733 555.157C760.949 528.758 754.45 500.776 735.302 481.447C727.054 473.121 717.688 467.042 706.38 463.696C691.356 459.249 674.324 460.296 658.835 460.277L670.402 440.207Z"/>
	<path fill="#F01518" d="M505.128 647.179L505.232 646.445C505.398 644.832 504.523 642.795 503.99 641.27L499.285 628.783L491.315 605.39L479.668 569.379L444.547 466.306L417.774 391.281L404.534 355.074L509.149 355.083L509.344 556.655L509.941 615.976C510.086 625.333 509.52 635.34 510.75 644.581L511.346 644.75C513.516 639.467 512.578 630.395 512.75 624.621L513.609 546.331L513.557 355.034L614.251 355.109L593.063 416.318L564.172 504.424L552.726 538.196L536.427 590L526.389 621.701L520.533 639.44C519.963 641.33 518.904 643.97 519.25 645.891C519.453 645.761 519.701 645.682 519.859 645.5C520.183 645.127 520.481 643.52 520.66 642.976L523.341 635.635L538.818 599.907L567.832 534.883L614.542 428.808L641.254 368.321L649.261 350.032C650.358 347.604 651.599 343.995 653.497 342.087C654.906 340.671 657.262 339.632 659.006 338.681L668.337 333.513L722.705 304.766C731.932 299.908 741.597 295.295 750.368 289.663L516.683 680.365C515.87 677.833 514.665 675.449 513.758 672.943L508.674 658.02C507.383 654.421 505.822 650.968 505.128 647.179Z"/>
</svg>
