<svg width="24" height="25" viewBox="0 0 24 25" fill="none" xmlns="http://www.w3.org/2000/svg">
<path d="M11.9907 2.49887C11.4387 2.49887 10.9907 2.94657 10.9907 3.49887V14.0609L7.99073 11.0929L6.58472 12.4989L11.2717 17.2179C11.6627 17.6079 12.3187 17.6079 12.7097 17.2179L17.3967 12.4989L15.9907 11.0929L12.9907 14.0609V3.49887C12.9907 2.94657 12.5427 2.49877 11.9907 2.49887ZM3.99072 14.4989C3.43872 14.4989 2.99072 14.9469 2.99072 15.4989V17.4989C2.99072 19.7079 4.78172 21.4989 6.99073 21.4989H16.9907C19.1997 21.4989 20.9907 19.7079 20.9907 17.4989V15.4989C20.9907 14.9469 20.5427 14.4989 19.9907 14.4989C19.4387 14.4989 18.9907 14.9469 18.9907 15.4989V17.4989C18.9907 18.6039 18.0957 19.4989 16.9907 19.4989H6.99073C5.88573 19.4989 4.99072 18.6039 4.99072 17.4989V15.4989C4.99072 14.9469 4.54272 14.4989 3.99072 14.4989Z" fill="black"/>
</svg>
